<?xml version="1.0" encoding="iso-8859-1"?>
<!-- Generator: Adobe Illustrator 18.1.1, SVG Export Plug-In . SVG Version: 6.00 Build 0)  -->
<svg version="1.1" id="Capa_1" xmlns="http://www.w3.org/2000/svg" xmlns:xlink="http://www.w3.org/1999/xlink" x="0px" y="0px"
	 viewBox="0 0 174.239 174.239" style="enable-background:new 0 0 174.239 174.239;" xml:space="preserve">
<g>
	<path d="M138.759,64.462H36.001c-0.647,0-1.245,0.099-1.842,0.348c-2.091,0.747-3.634,2.738-3.634,5.078l-0.1,14.488l-0.448,84.436
		c0,2.987,2.439,5.427,5.426,5.427h102.757c3.037,0,5.526-2.439,5.526-5.427l0.498-98.924
		C144.235,66.902,141.796,64.462,138.759,64.462z M54.572,89.007h11.451v60.689H54.572V89.007z M81.356,89.007h11.451v60.689H81.356
		V89.007z M119.641,149.695H108.19V89.007h11.451V149.695z"/>
	<path d="M138.795,44.875c3.007,0,5.467-2.46,5.467-5.467V24.668c0-3.007-2.46-5.467-5.467-5.467h-25.133
		c-3.007,0-5.467-2.46-5.467-5.467V5.467c0-3.007-2.46-5.467-5.467-5.467H72.168c-3.007,0-5.476,2.46-5.487,5.467l-0.031,8.268
		c-0.011,3.007-2.481,5.467-5.487,5.467H36.029c-3.007,0-5.467,2.46-5.467,5.467v14.741c0,3.007,2.46,5.467,5.467,5.467H138.795z"/>
</g>
<g>
</g>
<g>
</g>
<g>
</g>
<g>
</g>
<g>
</g>
<g>
</g>
<g>
</g>
<g>
</g>
<g>
</g>
<g>
</g>
<g>
</g>
<g>
</g>
<g>
</g>
<g>
</g>
<g>
</g>
</svg>
