<svg width="14" height="14" viewBox="0 0 14 14" fill="none" xmlns="http://www.w3.org/2000/svg">
<path fill-rule="evenodd" clip-rule="evenodd" d="M13.4669 13.0341L10.2014 9.76798C11.0773 8.7608 11.6077 7.4466 11.6077 6.01022C11.6077 2.84836 9.03626 0.279419 5.87803 0.279419C2.71671 0.279419 0.148193 2.85137 0.148193 6.01022C0.148193 9.16905 2.71968 11.7409 5.87803 11.7409C7.31415 11.7409 8.62816 11.2104 9.63523 10.3341L12.9008 13.6004C12.9783 13.6777 13.0825 13.7194 13.1839 13.7194C13.2852 13.7194 13.3895 13.6807 13.4669 13.6004C13.6219 13.4454 13.6219 13.1891 13.4669 13.0341ZM0.949857 6.01022C0.949857 3.29244 3.16063 1.08407 5.87495 1.08407C8.59245 1.08407 10.8002 3.29547 10.8002 6.01022C10.8002 8.72513 8.59245 10.9392 5.87495 10.9392C3.16063 10.9392 0.949857 8.72798 0.949857 6.01022Z" fill="#AAAAAA"/>
</svg>
