<svg width="21" height="19" viewBox="0 0 21 19" fill="none" xmlns="http://www.w3.org/2000/svg">
<path opacity="0.3" d="M10.2108 12.0615C10.9129 12.0615 11.5863 11.7802 12.0828 11.2795C12.5792 10.7789 12.8582 10.0998 12.8582 9.39182C12.8582 9.31363 12.8546 9.23617 12.848 9.15965L9.98054 12.0512C10.0564 12.0579 10.133 12.0615 10.2108 12.0615ZM18.9736 1.13404L17.9638 0.11672C17.9284 0.0809861 17.8803 0.0609131 17.8302 0.0609131C17.78 0.0609131 17.732 0.0809861 17.6965 0.11672L15.1125 2.7232C13.687 1.98857 12.0846 1.62125 10.3053 1.62125C5.7622 1.62125 2.3726 4.00725 0.136495 8.77923C0.0466145 8.97115 0 9.18076 0 9.39301C0 9.60525 0.0466145 9.81487 0.136495 10.0068C1.02999 11.9046 2.10589 13.4258 3.36418 14.5702L0.863582 17.0909C0.828146 17.1266 0.80824 17.1751 0.80824 17.2257C0.80824 17.2762 0.828146 17.3247 0.863582 17.3605L1.87266 18.378C1.90812 18.4138 1.9562 18.4338 2.00633 18.4338C2.05646 18.4338 2.10454 18.4138 2.14 18.378L18.9736 1.40387C18.9912 1.38616 19.0052 1.36513 19.0147 1.34198C19.0242 1.31883 19.0291 1.29402 19.0291 1.26896C19.0291 1.2439 19.0242 1.21908 19.0147 1.19593C19.0052 1.17278 18.9912 1.15175 18.9736 1.13404ZM6.05058 9.39182C6.05051 8.66721 6.23657 7.95495 6.59062 7.32441C6.94467 6.69386 7.45464 6.16655 8.07085 5.79383C8.68707 5.42111 9.38851 5.21569 10.1068 5.19759C10.8252 5.17949 11.5359 5.34933 12.1698 5.69055L11.0206 6.84946C10.5571 6.69981 10.0617 6.68178 9.58872 6.79737C9.11575 6.91295 8.68349 7.15768 8.33937 7.50469C7.99524 7.85171 7.75256 8.2876 7.63794 8.76455C7.52332 9.24149 7.54119 9.74106 7.6896 10.2084L6.54035 11.3674C6.21784 10.7597 6.04957 10.081 6.05058 9.39182Z" fill="#03014C"/>
<path opacity="0.3" d="M20.8582 8.89492C20.0086 7.16136 18.9973 5.74778 17.8243 4.65417L14.345 8.02502C14.6383 8.76774 14.7033 9.57684 14.5322 10.3546C14.3611 11.1323 13.9611 11.8454 13.3807 12.4077C12.8003 12.97 12.0642 13.3575 11.2614 13.5232C10.4586 13.689 9.6234 13.626 8.85674 13.3419L5.90561 16.2009C7.27473 16.8146 8.79752 17.1215 10.474 17.1215C15.1134 17.1215 18.5748 14.7807 20.8582 10.0992C20.95 9.91093 20.9976 9.70529 20.9976 9.49706C20.9976 9.28884 20.95 9.08319 20.8582 8.89492Z" fill="#03014C"/>
</svg>
